<svg width="80" height="70" viewBox="0 0 80 70" fill="none" xmlns="http://www.w3.org/2000/svg">
<path d="M58.75 0C54.4089 0 50.4289 1.36345 46.9208 4.05257C43.5575 6.63064 41.3183 9.91429 40 12.302C38.6817 9.91414 36.4425 6.63064 33.0792 4.05257C29.5711 1.36345 25.5911 0 21.25 0C9.13563 0 0 9.82122 0 22.8451C0 36.9154 11.3973 46.5421 28.6514 61.1156C31.5814 63.5905 34.9025 66.3958 38.3544 69.3877C38.8094 69.7826 39.3937 70 40 70C40.6063 70 41.1906 69.7826 41.6456 69.3878C45.0978 66.3955 48.4188 63.5904 51.3505 61.114C68.6027 46.5421 80 36.9154 80 22.8451C80 9.82122 70.8644 0 58.75 0Z" fill="#2E4B68"/>
</svg>
