<svg id="ec7aff4b-881c-4055-99ce-59930b3dd328" data-name="Слой 1" xmlns="http://www.w3.org/2000/svg"
    width="70" height="70" viewBox="0 0 70 70">
    <defs>
        <style>
            .bd49557f-0cb2-4ed9-b2af-e21f242bdf25 {
            fill-opacity: 0.9;
            }
        </style>
    </defs>
    <path class="bd49557f-0cb2-4ed9-b2af-e21f242bdf25"
        d="M29.99,1.79342a7.90153,7.90153,0,0,1,10.025,0l27.5,23.06848a7.04475,7.04475,0,0,1,1.8353,2.3557A6.60827,6.60827,0,0,1,70,30.0666V62.9982a6.77441,6.77441,0,0,1-2.1967,4.951A7.7793,7.7793,0,0,1,62.5,70H50a7.7793,7.7793,0,0,1-5.3033-2.0508A6.77441,6.77441,0,0,1,42.5,62.9982V46.6608a2.25837,2.25837,0,0,0-.7322-1.6504A2.59337,2.59337,0,0,0,40,44.3268H30a2.59337,2.59337,0,0,0-1.7678.6836A2.25837,2.25837,0,0,0,27.5,46.6608V62.9982a6.77441,6.77441,0,0,1-2.1967,4.951A7.7793,7.7793,0,0,1,20,70H7.5a7.7793,7.7793,0,0,1-5.3033-2.0508A6.77433,6.77433,0,0,1,0,62.9982V30.0666a6.786,6.786,0,0,1,2.49-5.2047Z"
        fill="#2E4B68" />
    <path class="bd49557f-0cb2-4ed9-b2af-e21f242bdf25"
        d="M36.67,5.2663a2.63389,2.63389,0,0,0-3.34,0L5.83,28.3348a2.34906,2.34906,0,0,0-.612.7836A2.20311,2.20311,0,0,0,5,30.0666V62.9982a2.25825,2.25825,0,0,0,.73223,1.6504A2.59311,2.59311,0,0,0,7.5,65.3322H20a2.59337,2.59337,0,0,0,1.7678-.6836A2.25837,2.25837,0,0,0,22.5,62.9982V46.6608a6.77441,6.77441,0,0,1,2.1967-4.951A7.7793,7.7793,0,0,1,30,39.659H40a7.7793,7.7793,0,0,1,5.3033,2.0508A6.77441,6.77441,0,0,1,47.5,46.6608V62.9982a2.25837,2.25837,0,0,0,.7322,1.6504A2.59337,2.59337,0,0,0,50,65.3322H62.5a2.59337,2.59337,0,0,0,1.7678-.6836A2.25837,2.25837,0,0,0,65,62.9982V30.0666a2.20338,2.20338,0,0,0-.218-.9482,2.3496,2.3496,0,0,0-.612-.7836Z"
        fill="#2E4B68" />
</svg>
