<svg width="80" height="80" viewBox="0 0 80 80" fill="none" xmlns="http://www.w3.org/2000/svg">
<rect width="80" height="80" rx="20" fill="#2E4B68"/>
<path d="M42.2211 37.4361C42.2211 37.4361 41.6832 30.9482 42.2211 26.1074" stroke="#E3ECF4" stroke-width="2" stroke-miterlimit="10" stroke-linecap="round" stroke-linejoin="round"/>
<path d="M40.0999 37.4361C40.0999 37.4361 40.6377 30.9482 40.0999 26.1074" stroke="#E3ECF4" stroke-width="2" stroke-miterlimit="10" stroke-linecap="round" stroke-linejoin="round"/>
<path d="M39.999 43.7224C39.999 43.7224 40.5369 50.2103 39.999 55.0511" stroke="#E3ECF4" stroke-width="2" stroke-miterlimit="10" stroke-linecap="round" stroke-linejoin="round"/>
<path d="M42.1202 43.7224C42.1202 43.7224 41.5823 50.2103 42.1202 55.0511" stroke="#E3ECF4" stroke-width="2" stroke-miterlimit="10" stroke-linecap="round" stroke-linejoin="round"/>
<path d="M37.8577 41.292C37.8577 41.292 32.4859 44.9696 28.0149 46.8992" stroke="#E3ECF4" stroke-width="2" stroke-miterlimit="10" stroke-linecap="round" stroke-linejoin="round"/>
<path d="M38.91 43.1343C38.91 43.1343 33.007 45.8774 29.0671 48.7415" stroke="#E3ECF4" stroke-width="2" stroke-miterlimit="10" stroke-linecap="round" stroke-linejoin="round"/>
<path d="M28.0822 34.2998C28.0822 34.2998 33.9347 37.1471 37.8241 40.0818" stroke="#E3ECF4" stroke-width="2" stroke-miterlimit="10" stroke-linecap="round" stroke-linejoin="round"/>
<path d="M29.1647 32.4744C29.1647 32.4744 34.4693 36.2461 38.9067 38.2564" stroke="#E3ECF4" stroke-width="2" stroke-miterlimit="10" stroke-linecap="round" stroke-linejoin="round"/>
<path d="M54.1683 34.2964C54.1683 34.2964 48.3157 37.147 44.4263 40.0817" stroke="#E3ECF4" stroke-width="2" stroke-miterlimit="10" stroke-linecap="round" stroke-linejoin="round"/>
<path d="M53.0859 32.4709C53.0859 32.4709 47.7812 36.2461 43.3439 38.2563" stroke="#E3ECF4" stroke-width="2" stroke-miterlimit="10" stroke-linecap="round" stroke-linejoin="round"/>
<path d="M53.3144 48.9196C53.3144 48.9196 47.9493 45.2319 43.4817 43.2922" stroke="#E3ECF4" stroke-width="2" stroke-miterlimit="10" stroke-linecap="round" stroke-linejoin="round"/>
<path d="M54.37 47.0773C54.37 47.0773 48.4703 44.3208 44.5372 41.45" stroke="#E3ECF4" stroke-width="2" stroke-miterlimit="10" stroke-linecap="round" stroke-linejoin="round"/>
<path d="M38.8932 38.2428L40.1034 37.436" stroke="#E3ECF4" stroke-width="2" stroke-miterlimit="10" stroke-linecap="round" stroke-linejoin="round"/>
<path d="M42.2212 37.436L43.3305 38.2428" stroke="#E3ECF4" stroke-width="2" stroke-miterlimit="10" stroke-linecap="round" stroke-linejoin="round"/>
<path d="M44.4297 40.0815L44.5373 41.4497" stroke="#E3ECF4" stroke-width="2" stroke-miterlimit="10" stroke-linecap="round" stroke-linejoin="round"/>
<path d="M42.1204 43.7223L43.4818 43.292" stroke="#E3ECF4" stroke-width="2" stroke-miterlimit="10" stroke-linecap="round" stroke-linejoin="round"/>
<path d="M38.9099 43.134L39.9991 43.7223" stroke="#E3ECF4" stroke-width="2" stroke-miterlimit="10" stroke-linecap="round" stroke-linejoin="round"/>
<path d="M37.8275 40.0784L37.8578 41.2919" stroke="#E3ECF4" stroke-width="2" stroke-miterlimit="10" stroke-linecap="round" stroke-linejoin="round"/>
<path d="M41.1958 42.9592C42.4063 42.9592 43.3876 41.9779 43.3876 40.7675C43.3876 39.557 42.4063 38.5757 41.1958 38.5757C39.9853 38.5757 39.004 39.557 39.004 40.7675C39.004 41.9779 39.9853 42.9592 41.1958 42.9592Z" stroke="#E3ECF4" stroke-width="2" stroke-miterlimit="10" stroke-linecap="round" stroke-linejoin="round"/>
<path d="M41.1959 38.3539C41.3054 38.3539 41.3942 38.2651 41.3942 38.1556C41.3942 38.0461 41.3054 37.9573 41.1959 37.9573C41.0864 37.9573 40.9976 38.0461 40.9976 38.1556C40.9976 38.2651 41.0864 38.3539 41.1959 38.3539Z" stroke="#E3ECF4" stroke-width="2" stroke-miterlimit="10" stroke-linecap="round" stroke-linejoin="round"/>
<path d="M41.1959 43.7058C41.3054 43.7058 41.3942 43.617 41.3942 43.5074C41.3942 43.3979 41.3054 43.3091 41.1959 43.3091C41.0864 43.3091 40.9976 43.3979 40.9976 43.5074C40.9976 43.617 41.0864 43.7058 41.1959 43.7058Z" stroke="#E3ECF4" stroke-width="2" stroke-miterlimit="10" stroke-linecap="round" stroke-linejoin="round"/>
<path d="M43.8717 41.0297C43.9812 41.0297 44.07 40.9409 44.07 40.8314C44.07 40.7219 43.9812 40.6331 43.8717 40.6331C43.7621 40.6331 43.6733 40.7219 43.6733 40.8314C43.6733 40.9409 43.7621 41.0297 43.8717 41.0297Z" stroke="#E3ECF4" stroke-width="2" stroke-miterlimit="10" stroke-linecap="round" stroke-linejoin="round"/>
<path d="M38.52 41.0297C38.6295 41.0297 38.7183 40.9409 38.7183 40.8314C38.7183 40.7219 38.6295 40.6331 38.52 40.6331C38.4105 40.6331 38.3217 40.7219 38.3217 40.8314C38.3217 40.9409 38.4105 41.0297 38.52 41.0297Z" stroke="#E3ECF4" stroke-width="2" stroke-miterlimit="10" stroke-linecap="round" stroke-linejoin="round"/>
<path d="M43.0885 42.9225C43.198 42.9225 43.2868 42.8338 43.2868 42.7242C43.2868 42.6147 43.198 42.5259 43.0885 42.5259C42.9789 42.5259 42.8901 42.6147 42.8901 42.7242C42.8901 42.8338 42.9789 42.9225 43.0885 42.9225Z" stroke="#E3ECF4" stroke-width="2" stroke-miterlimit="10" stroke-linecap="round" stroke-linejoin="round"/>
<path d="M39.3032 39.1372C39.4127 39.1372 39.5015 39.0484 39.5015 38.9388C39.5015 38.8293 39.4127 38.7405 39.3032 38.7405C39.1937 38.7405 39.1049 38.8293 39.1049 38.9388C39.1049 39.0484 39.1937 39.1372 39.3032 39.1372Z" stroke="#E3ECF4" stroke-width="2" stroke-miterlimit="10" stroke-linecap="round" stroke-linejoin="round"/>
<path d="M39.3032 42.9225C39.4127 42.9225 39.5015 42.8338 39.5015 42.7242C39.5015 42.6147 39.4127 42.5259 39.3032 42.5259C39.1937 42.5259 39.1049 42.6147 39.1049 42.7242C39.1049 42.8338 39.1937 42.9225 39.3032 42.9225Z" stroke="#E3ECF4" stroke-width="2" stroke-miterlimit="10" stroke-linecap="round" stroke-linejoin="round"/>
<path d="M43.0885 39.1372C43.198 39.1372 43.2868 39.0484 43.2868 38.9388C43.2868 38.8293 43.198 38.7405 43.0885 38.7405C42.9789 38.7405 42.8901 38.8293 42.8901 38.9388C42.8901 39.0484 42.9789 39.1372 43.0885 39.1372Z" stroke="#E3ECF4" stroke-width="2" stroke-miterlimit="10" stroke-linecap="round" stroke-linejoin="round"/>
<path d="M38.7284 39.9943C38.8379 39.9943 38.9267 39.9055 38.9267 39.796C38.9267 39.6865 38.8379 39.5977 38.7284 39.5977C38.6188 39.5977 38.53 39.6865 38.53 39.796C38.53 39.9055 38.6188 39.9943 38.7284 39.9943Z" stroke="#E3ECF4" stroke-width="2" stroke-miterlimit="10" stroke-linecap="round" stroke-linejoin="round"/>
<path d="M43.6633 42.0651C43.7728 42.0651 43.8616 41.9763 43.8616 41.8668C43.8616 41.7573 43.7728 41.6685 43.6633 41.6685C43.5538 41.6685 43.465 41.7573 43.465 41.8668C43.465 41.9763 43.5538 42.0651 43.6633 42.0651Z" stroke="#E3ECF4" stroke-width="2" stroke-miterlimit="10" stroke-linecap="round" stroke-linejoin="round"/>
<path d="M43.6834 40.0414C43.793 40.0414 43.8818 39.9526 43.8818 39.8431C43.8818 39.7336 43.793 39.6448 43.6834 39.6448C43.5739 39.6448 43.4851 39.7336 43.4851 39.8431C43.4851 39.9526 43.5739 40.0414 43.6834 40.0414Z" stroke="#E3ECF4" stroke-width="2" stroke-miterlimit="10" stroke-linecap="round" stroke-linejoin="round"/>
<path d="M38.7082 42.018C38.8178 42.018 38.9066 41.9292 38.9066 41.8197C38.9066 41.7101 38.8178 41.6213 38.7082 41.6213C38.5987 41.6213 38.5099 41.7101 38.5099 41.8197C38.5099 41.9292 38.5987 42.018 38.7082 42.018Z" stroke="#E3ECF4" stroke-width="2" stroke-miterlimit="10" stroke-linecap="round" stroke-linejoin="round"/>
<path d="M42.2212 38.5556C42.3307 38.5556 42.4195 38.4668 42.4195 38.3573C42.4195 38.2477 42.3307 38.1589 42.2212 38.1589C42.1116 38.1589 42.0228 38.2477 42.0228 38.3573C42.0228 38.4668 42.1116 38.5556 42.2212 38.5556Z" stroke="#E3ECF4" stroke-width="2" stroke-miterlimit="10" stroke-linecap="round" stroke-linejoin="round"/>
<path d="M40.1705 43.5007C40.28 43.5007 40.3688 43.4119 40.3688 43.3023C40.3688 43.1928 40.28 43.104 40.1705 43.104C40.061 43.104 39.9722 43.1928 39.9722 43.3023C39.9722 43.4119 40.061 43.5007 40.1705 43.5007Z" stroke="#E3ECF4" stroke-width="2" stroke-miterlimit="10" stroke-linecap="round" stroke-linejoin="round"/>
<path d="M40.0932 38.5927C40.2028 38.5927 40.2916 38.5039 40.2916 38.3944C40.2916 38.2848 40.2028 38.196 40.0932 38.196C39.9837 38.196 39.8949 38.2848 39.8949 38.3944C39.8949 38.5039 39.9837 38.5927 40.0932 38.5927Z" stroke="#E3ECF4" stroke-width="2" stroke-miterlimit="10" stroke-linecap="round" stroke-linejoin="round"/>
<path d="M42.2984 43.467C42.408 43.467 42.4968 43.3782 42.4968 43.2686C42.4968 43.1591 42.408 43.0703 42.2984 43.0703C42.1889 43.0703 42.1001 43.1591 42.1001 43.2686C42.1001 43.3782 42.1889 43.467 42.2984 43.467Z" stroke="#E3ECF4" stroke-width="2" stroke-miterlimit="10" stroke-linecap="round" stroke-linejoin="round"/>
<path d="M42.2212 26.1074C42.2212 26.1074 45.7341 24.0568 45.166 21.3271C45.166 21.3271 44.6046 22.7088 43.7238 22.7827C42.8431 22.8533 42.8599 22.376 42.8599 22.376" stroke="#E3ECF4" stroke-width="2" stroke-miterlimit="10" stroke-linecap="round" stroke-linejoin="round"/>
<path d="M40.1 26.1072C40.1 26.1072 38.9974 24.7491 37.5418 26.5577C37.5418 26.5577 37.4544 25.3509 38.2511 24.4836C39.0478 23.6163 39.784 23.4919 40.3386 22.1775" stroke="#E3ECF4" stroke-width="2" stroke-miterlimit="10" stroke-linecap="round" stroke-linejoin="round"/>
<path d="M54.1685 34.2963C54.1685 34.2963 57.6679 36.2695 59.7353 34.3971C59.7353 34.3971 58.2596 34.6156 57.7519 33.8895C57.2443 33.1668 57.9873 32.6726 57.9873 32.6726" stroke="#E3ECF4" stroke-width="2" stroke-miterlimit="10" stroke-linecap="round" stroke-linejoin="round"/>
<path d="M53.086 32.4709C53.086 32.4709 53.6574 30.8102 51.3615 30.4707C51.3615 30.4707 52.3565 29.7849 53.5095 30.0303C54.6626 30.2791 55.1433 30.8506 56.5552 30.6623" stroke="#E3ECF4" stroke-width="2" stroke-miterlimit="10" stroke-linecap="round" stroke-linejoin="round"/>
<path d="M53.3145 48.9194C53.3145 48.9194 52.9279 52.6508 55.5735 53.5282C55.5735 53.5282 54.6591 52.3483 55.039 51.5516C55.4188 50.7549 56.1752 50.9734 56.1752 50.9734" stroke="#E3ECF4" stroke-width="2" stroke-miterlimit="10" stroke-linecap="round" stroke-linejoin="round"/>
<path d="M54.37 47.0771C54.37 47.0771 55.7146 46.4754 54.881 44.3071C54.881 44.3071 55.9668 44.8349 56.3197 45.961C56.6693 47.0872 56.4071 47.7864 57.2644 48.9226" stroke="#E3ECF4" stroke-width="2" stroke-miterlimit="10" stroke-linecap="round" stroke-linejoin="round"/>
<path d="M39.9991 55.0508C39.9991 55.0508 36.429 56.9669 36.9366 59.7066C36.9366 59.7066 37.5283 58.3351 38.409 58.2847C39.2931 58.2342 39.552 58.9637 39.552 58.9637" stroke="#E3ECF4" stroke-width="2" stroke-miterlimit="10" stroke-linecap="round" stroke-linejoin="round"/>
<path d="M42.1203 55.0509C42.1203 55.0509 43.1826 56.1199 44.6751 54.3416C44.6751 54.3416 44.7356 55.8543 43.9188 56.7048C43.1019 57.5553 42.3623 57.6628 41.7808 58.9638" stroke="#E3ECF4" stroke-width="2" stroke-miterlimit="10" stroke-linecap="round" stroke-linejoin="round"/>
<path d="M28.015 46.8989C28.015 46.8989 24.2903 44.9761 22.317 46.9494C22.317 46.9494 23.7894 46.6535 24.3239 47.3561C24.7945 47.978 24.4617 48.3982 24.4617 48.3982" stroke="#E3ECF4" stroke-width="2" stroke-miterlimit="10" stroke-linecap="round" stroke-linejoin="round"/>
<path d="M29.0638 48.7412C29.0638 48.7412 28.5629 50.2304 30.8724 50.4556C30.8724 50.4556 29.9143 51.1918 28.7478 51.0002C27.5847 50.8086 27.0771 50.3615 25.6753 50.617" stroke="#E3ECF4" stroke-width="2" stroke-miterlimit="10" stroke-linecap="round" stroke-linejoin="round"/>
<path d="M29.1646 32.4742C29.1646 32.4742 29.1175 28.4504 26.4652 27.5864C26.4652 27.5864 27.3863 28.7596 27.0098 29.5597C26.6333 30.3598 26.1526 30.2354 26.1526 30.2354" stroke="#E3ECF4" stroke-width="2" stroke-miterlimit="10" stroke-linecap="round" stroke-linejoin="round"/>
<path d="M28.0821 34.2997C28.0821 34.2997 26.3744 34.646 27.2215 36.8041C27.2215 36.8041 26.1324 36.2831 25.7727 35.1569C25.4164 34.0342 25.5138 33.6072 24.6499 32.4744" stroke="#E3ECF4" stroke-width="2" stroke-miterlimit="10" stroke-linecap="round" stroke-linejoin="round"/>
<path d="M40.3386 22.1777C40.3386 22.1777 42.7287 14.8729 37.33 7C37.33 7 43.6431 9.61198 42.8632 22.3727" stroke="#E3ECF4" stroke-width="2" stroke-miterlimit="10" stroke-linecap="round" stroke-linejoin="round"/>
<path d="M24.65 32.4743C24.65 32.4743 19.5268 26.8335 10 27.4251C10 27.4251 15.6072 23.0147 26.1593 30.2354" stroke="#E3ECF4" stroke-width="2" stroke-miterlimit="10" stroke-linecap="round" stroke-linejoin="round"/>
<path d="M56.5551 30.6658C56.5551 30.6658 64.2599 28.7732 68.3308 20.1372C68.3308 20.1372 69.3965 26.9075 57.9837 32.6727" stroke="#E3ECF4" stroke-width="2" stroke-miterlimit="10" stroke-linecap="round" stroke-linejoin="round"/>
<path d="M57.2611 48.926C57.2611 48.926 62.0649 53.9954 71 53.3062C71 53.3062 67.3594 57.1721 56.1753 50.9733" stroke="#E3ECF4" stroke-width="2" stroke-miterlimit="10" stroke-linecap="round" stroke-linejoin="round"/>
<path d="M41.7808 58.9641C41.7808 58.9641 39.5554 64.1881 44.5071 72.3501C44.5071 72.3501 38.4393 70.5146 39.552 58.9641" stroke="#E3ECF4" stroke-width="2" stroke-miterlimit="10" stroke-linecap="round" stroke-linejoin="round"/>
<path d="M25.6786 50.6171C25.6786 50.6171 18.8847 51.629 14.5617 60.1406C14.5617 60.1406 12.8876 53.8275 24.4617 48.3984" stroke="#E3ECF4" stroke-width="2" stroke-miterlimit="10" stroke-linecap="round" stroke-linejoin="round"/>
<path d="M37.33 7C37.33 7 43.8818 9.43381 43.8851 17.653L42.8733 18.3589" stroke="#E3ECF4" stroke-width="2" stroke-miterlimit="10" stroke-linecap="round" stroke-linejoin="round"/>
<path d="M68.3309 20.1372C68.3309 20.1372 69.299 27.8521 62.2228 31.5735L61.0093 30.9448" stroke="#E3ECF4" stroke-width="2" stroke-miterlimit="10" stroke-linecap="round" stroke-linejoin="round"/>
<path d="M71 53.3064C71 53.3064 66.0248 57.8009 58.9789 54.0258L59.0562 52.4324" stroke="#E3ECF4" stroke-width="2" stroke-miterlimit="10" stroke-linecap="round" stroke-linejoin="round"/>
<path d="M44.5104 72.3499C44.5104 72.3499 37.9955 69.9564 38.2073 62.8029L39.4175 62.2449" stroke="#E3ECF4" stroke-width="2" stroke-miterlimit="10" stroke-linecap="round" stroke-linejoin="round"/>
<path d="M14.5617 60.1406C14.5617 60.1406 13.1734 53.9182 20.0781 49.6355L20.9891 50.2843" stroke="#E3ECF4" stroke-width="2" stroke-miterlimit="10" stroke-linecap="round" stroke-linejoin="round"/>
<path d="M10 27.4252C10 27.4252 15.3315 23.25 22.6464 26.8402V28.1479" stroke="#E3ECF4" stroke-width="2" stroke-miterlimit="10" stroke-linecap="round" stroke-linejoin="round"/>
<path d="M29.6017 35.0693C29.6017 35.0693 30.2101 34.4373 30.4656 33.365" stroke="#E3ECF4" stroke-width="2" stroke-miterlimit="10" stroke-linecap="round" stroke-linejoin="round"/>
<path d="M29.8976 35.224C29.8976 35.224 30.6371 34.3534 30.7313 33.5432" stroke="#E3ECF4" stroke-width="2" stroke-miterlimit="10" stroke-linecap="round" stroke-linejoin="round"/>
<path d="M31.5347 36.1116C31.5347 36.1116 32.2339 35.5368 32.4457 34.6594" stroke="#E3ECF4" stroke-width="2" stroke-miterlimit="10" stroke-linecap="round" stroke-linejoin="round"/>
<path d="M31.8741 36.2999C31.8741 36.2999 32.5095 35.7755 32.8188 34.8914" stroke="#E3ECF4" stroke-width="2" stroke-miterlimit="10" stroke-linecap="round" stroke-linejoin="round"/>
<path d="M40.2379 27.7175C40.2413 27.7713 41.1993 27.9192 42.0834 27.7175" stroke="#E3ECF4" stroke-width="2" stroke-miterlimit="10" stroke-linecap="round" stroke-linejoin="round"/>
<path d="M40.2648 28.1984C40.2648 28.1984 41.3876 28.3463 42.0565 28.1345" stroke="#E3ECF4" stroke-width="2" stroke-miterlimit="10" stroke-linecap="round" stroke-linejoin="round"/>
<path d="M40.3387 30.2052C40.3387 30.2052 41.3304 30.39 41.9893 30.1514" stroke="#E3ECF4" stroke-width="2" stroke-miterlimit="10" stroke-linecap="round" stroke-linejoin="round"/>
<path d="M40.3353 30.6051C40.3353 30.6051 41.4514 30.7765 41.9892 30.5513" stroke="#E3ECF4" stroke-width="2" stroke-miterlimit="10" stroke-linecap="round" stroke-linejoin="round"/>
<path d="M51.785 33.365C51.785 33.365 51.9632 34.4071 52.7834 34.9987" stroke="#E3ECF4" stroke-width="2" stroke-miterlimit="10" stroke-linecap="round" stroke-linejoin="round"/>
<path d="M51.3615 33.6475C51.3615 33.6475 51.5833 34.6425 52.3565 35.2039" stroke="#E3ECF4" stroke-width="2" stroke-miterlimit="10" stroke-linecap="round" stroke-linejoin="round"/>
<path d="M49.7042 34.7231C49.7042 34.7231 50.0169 35.6308 50.6488 36.1485" stroke="#E3ECF4" stroke-width="2" stroke-miterlimit="10" stroke-linecap="round" stroke-linejoin="round"/>
<path d="M49.4487 34.8845C49.4487 34.8845 49.526 35.7417 50.3093 36.3401" stroke="#E3ECF4" stroke-width="2" stroke-miterlimit="10" stroke-linecap="round" stroke-linejoin="round"/>
<path d="M52.5684 46.1931C52.5684 46.1931 51.9129 46.7209 51.6372 47.8101" stroke="#E3ECF4" stroke-width="2" stroke-miterlimit="10" stroke-linecap="round" stroke-linejoin="round"/>
<path d="M51.2271 47.5512C51.2271 47.5512 51.5195 46.4116 52.2187 46.0149" stroke="#E3ECF4" stroke-width="2" stroke-miterlimit="10" stroke-linecap="round" stroke-linejoin="round"/>
<path d="M49.6202 46.5562C49.6202 46.5562 49.9362 45.5309 50.5077 45.114" stroke="#E3ECF4" stroke-width="2" stroke-miterlimit="10" stroke-linecap="round" stroke-linejoin="round"/>
<path d="M49.2941 46.3577C49.2941 46.3577 49.5327 45.3223 50.1479 44.9189" stroke="#E3ECF4" stroke-width="2" stroke-miterlimit="10" stroke-linecap="round" stroke-linejoin="round"/>
<path d="M40.1471 53.266C40.1471 53.266 41.2531 53.0542 41.9691 53.266" stroke="#E3ECF4" stroke-width="2" stroke-miterlimit="10" stroke-linecap="round" stroke-linejoin="round"/>
<path d="M40.1707 52.8389C40.1707 52.8389 41.1018 52.6372 41.949 52.8389" stroke="#E3ECF4" stroke-width="2" stroke-miterlimit="10" stroke-linecap="round" stroke-linejoin="round"/>
<path d="M40.2379 50.859C40.2379 50.859 40.8094 50.711 41.8817 50.859" stroke="#E3ECF4" stroke-width="2" stroke-miterlimit="10" stroke-linecap="round" stroke-linejoin="round"/>
<path d="M40.2379 50.5127C40.2379 50.5127 41.0783 50.3144 41.8851 50.5127" stroke="#E3ECF4" stroke-width="2" stroke-miterlimit="10" stroke-linecap="round" stroke-linejoin="round"/>
<path d="M40.1168 45.4605C40.1168 45.4605 41.2598 45.2621 41.9993 45.4605" stroke="#E3ECF4" stroke-width="2" stroke-miterlimit="10" stroke-linecap="round" stroke-linejoin="round"/>
<path d="M44.7827 43.8903C44.7827 43.8903 45.0987 42.7205 45.7811 42.3137" stroke="#E3ECF4" stroke-width="2" stroke-miterlimit="10" stroke-linecap="round" stroke-linejoin="round"/>
<path d="M45.7442 39.1371C45.7442 39.1371 44.9273 38.3639 44.9105 37.4966" stroke="#E3ECF4" stroke-width="2" stroke-miterlimit="10" stroke-linecap="round" stroke-linejoin="round"/>
<path d="M37.4409 37.5471C37.4409 37.5471 37.33 38.6161 36.5098 39.1405" stroke="#E3ECF4" stroke-width="2" stroke-miterlimit="10" stroke-linecap="round" stroke-linejoin="round"/>
<path d="M40.2177 35.9469C40.2177 35.9469 41.2329 36.2024 42.1002 35.9099" stroke="#E3ECF4" stroke-width="2" stroke-miterlimit="10" stroke-linecap="round" stroke-linejoin="round"/>
<path d="M36.5132 42.1794C36.5132 42.1794 37.2494 43.0938 37.357 43.8905" stroke="#E3ECF4" stroke-width="2" stroke-miterlimit="10" stroke-linecap="round" stroke-linejoin="round"/>
<path d="M29.521 46.2031C29.521 46.2031 30.2 46.8452 30.4051 47.8201" stroke="#E3ECF4" stroke-width="2" stroke-miterlimit="10" stroke-linecap="round" stroke-linejoin="round"/>
<path d="M29.7865 46.0723C29.7865 46.0723 30.5294 46.6505 30.6504 47.659" stroke="#E3ECF4" stroke-width="2" stroke-miterlimit="10" stroke-linecap="round" stroke-linejoin="round"/>
<path d="M31.5144 45.168C31.5144 45.168 32.18 45.689 32.3817 46.5866" stroke="#E3ECF4" stroke-width="2" stroke-miterlimit="10" stroke-linecap="round" stroke-linejoin="round"/>
<path d="M31.817 45.0032C31.817 45.0032 32.5431 45.5478 32.7078 46.3982" stroke="#E3ECF4" stroke-width="2" stroke-miterlimit="10" stroke-linecap="round" stroke-linejoin="round"/>
</svg>
