<svg width="75" height="70" viewBox="0 0 75 70" fill="none" xmlns="http://www.w3.org/2000/svg">
    <path
        d="M50.536 0.666768C50.1849 0.337927 49.7453 0.118829 49.2712 0.036453C48.7971 -0.0459234 48.3092 0.0120182 47.8677 0.203143C47.4261 0.394268 47.0502 0.710232 46.7861 1.11213C46.522 1.51403 46.3813 1.98431 46.3814 2.46507V13.2549C45.6748 13.2707 44.8518 13.314 43.934 13.3969C40.9044 13.6769 36.7972 14.434 32.5341 16.3644C23.846 20.2982 14.917 28.9328 12.8447 47.046C12.7882 47.5419 12.8838 48.0432 13.1187 48.4836C13.3536 48.924 13.7168 49.2828 14.1602 49.5126C14.6037 49.7423 15.1065 49.8321 15.6021 49.7702C16.0978 49.7083 16.563 49.4975 16.9361 49.1657C25.492 41.5663 33.5091 38.2951 39.3097 36.903C41.6271 36.3341 43.9967 36.0037 46.3814 35.917V46.8311C46.3813 47.3118 46.522 47.7821 46.7861 48.184C47.0502 48.5859 47.4261 48.9019 47.8677 49.093C48.3092 49.2841 48.7971 49.3421 49.2712 49.2597C49.7453 49.1773 50.1849 48.9582 50.536 48.6294L74.2201 26.4464C74.4663 26.2158 74.6625 25.9373 74.7966 25.628C74.9308 25.3187 75 24.9852 75 24.6481C75 24.311 74.9308 23.9775 74.7966 23.6682C74.6625 23.3588 74.4663 23.0803 74.2201 22.8498L50.536 0.666768ZM48.5643 18.2239L48.6037 18.2278H48.6077H48.6057C48.9485 18.2617 49.2946 18.2235 49.6217 18.1156C49.9488 18.0077 50.2497 17.8326 50.505 17.6016C50.7603 17.3705 50.9643 17.0886 51.1039 16.774C51.2435 16.4594 51.3156 16.119 51.3156 15.7749V8.15378L68.9247 24.6481L51.3156 41.1424V33.5213C51.3156 32.279 50.4195 31.234 49.1544 31.0762H49.1485L49.1406 31.0742L49.1208 31.0723L49.0656 31.0664C48.7964 31.0399 48.5266 31.0202 48.2564 31.0072C47.7255 30.9796 46.9695 30.9638 46.0182 30.9954C43.3672 31.1053 40.7338 31.4791 38.1571 32.1114C32.8676 33.3793 26.1196 35.9979 18.8585 41.2863C21.7914 29.2976 28.4565 23.6227 34.5689 20.8543C38.2025 19.2098 41.7432 18.5512 44.388 18.3067C45.7064 18.1844 46.788 18.1687 47.5281 18.1805C47.8738 18.1854 48.2193 18.1999 48.5643 18.2239ZM12.3355 2.95803C9.0639 2.95803 5.92633 4.25643 3.61298 6.56761C1.29963 8.87879 0 12.0134 0 15.2819V57.6761C0 60.9446 1.29963 64.0792 3.61298 66.3904C5.92633 68.7016 9.0639 70 12.3355 70H54.7695C58.0411 70 61.1787 68.7016 63.492 66.3904C65.8054 64.0792 67.105 60.9446 67.105 57.6761V53.2395C67.105 52.5858 66.8451 51.9589 66.3824 51.4966C65.9197 51.0344 65.2922 50.7747 64.6379 50.7747C63.9836 50.7747 63.3561 51.0344 62.8934 51.4966C62.4307 51.9589 62.1708 52.5858 62.1708 53.2395V57.6761C62.1708 59.6372 61.391 61.518 60.003 62.9047C58.615 64.2914 56.7325 65.0704 54.7695 65.0704H12.3355C10.3725 65.0704 8.48999 64.2914 7.10198 62.9047C5.71397 61.518 4.93419 59.6372 4.93419 57.6761V15.2819C4.93419 13.3208 5.71397 11.44 7.10198 10.0533C8.48999 8.66663 10.3725 7.88758 12.3355 7.88758H28.6183C29.2726 7.88758 29.9001 7.6279 30.3628 7.16567C30.8255 6.70343 31.0854 6.0765 31.0854 5.4228C31.0854 4.7691 30.8255 4.14218 30.3628 3.67994C29.9001 3.21771 29.2726 2.95803 28.6183 2.95803H12.3355Z"
        fill="#2E4B68" fill-opacity="0.7" />
</svg>
