<svg width="80" height="80" viewBox="0 0 80 80" fill="none" xmlns="http://www.w3.org/2000/svg">
<rect width="80" height="80" rx="20" fill="white"/>
<rect x="2" y="2" width="76" height="76" rx="18" stroke="#2E4B68" stroke-opacity="0.6" stroke-width="4"/>
<path d="M42.2211 37.4361C42.2211 37.4361 41.6832 30.9482 42.2211 26.1074" stroke="#8293A4" stroke-width="2" stroke-miterlimit="10" stroke-linecap="round" stroke-linejoin="round"/>
<path d="M40.0999 37.4361C40.0999 37.4361 40.6378 30.9482 40.0999 26.1074" stroke="#8293A4" stroke-width="2" stroke-miterlimit="10" stroke-linecap="round" stroke-linejoin="round"/>
<path d="M39.999 43.7223C39.999 43.7223 40.5369 50.2102 39.999 55.051" stroke="#8293A4" stroke-width="2" stroke-miterlimit="10" stroke-linecap="round" stroke-linejoin="round"/>
<path d="M42.1202 43.7223C42.1202 43.7223 41.5824 50.2102 42.1202 55.051" stroke="#8293A4" stroke-width="2" stroke-miterlimit="10" stroke-linecap="round" stroke-linejoin="round"/>
<path d="M37.8577 41.2919C37.8577 41.2919 32.4859 44.9695 28.0149 46.8991" stroke="#8293A4" stroke-width="2" stroke-miterlimit="10" stroke-linecap="round" stroke-linejoin="round"/>
<path d="M38.9099 43.134C38.9099 43.134 33.0069 45.8771 29.0671 48.7412" stroke="#8293A4" stroke-width="2" stroke-miterlimit="10" stroke-linecap="round" stroke-linejoin="round"/>
<path d="M28.0821 34.2998C28.0821 34.2998 33.9347 37.1471 37.8241 40.0818" stroke="#8293A4" stroke-width="2" stroke-miterlimit="10" stroke-linecap="round" stroke-linejoin="round"/>
<path d="M29.1646 32.4744C29.1646 32.4744 34.4692 36.2461 38.9065 38.2564" stroke="#8293A4" stroke-width="2" stroke-miterlimit="10" stroke-linecap="round" stroke-linejoin="round"/>
<path d="M54.1683 34.2964C54.1683 34.2964 48.3157 37.147 44.4263 40.0817" stroke="#8293A4" stroke-width="2" stroke-miterlimit="10" stroke-linecap="round" stroke-linejoin="round"/>
<path d="M53.0859 32.4709C53.0859 32.4709 47.7812 36.2461 43.3439 38.2563" stroke="#8293A4" stroke-width="2" stroke-miterlimit="10" stroke-linecap="round" stroke-linejoin="round"/>
<path d="M53.3144 48.9195C53.3144 48.9195 47.9493 45.2318 43.4817 43.2921" stroke="#8293A4" stroke-width="2" stroke-miterlimit="10" stroke-linecap="round" stroke-linejoin="round"/>
<path d="M54.37 47.0772C54.37 47.0772 48.4703 44.3207 44.5372 41.4498" stroke="#8293A4" stroke-width="2" stroke-miterlimit="10" stroke-linecap="round" stroke-linejoin="round"/>
<path d="M38.8931 38.2429L40.1033 37.4362" stroke="#8293A4" stroke-width="2" stroke-miterlimit="10" stroke-linecap="round" stroke-linejoin="round"/>
<path d="M42.2211 37.4362L43.3305 38.2429" stroke="#8293A4" stroke-width="2" stroke-miterlimit="10" stroke-linecap="round" stroke-linejoin="round"/>
<path d="M44.4297 40.0817L44.5373 41.4498" stroke="#8293A4" stroke-width="2" stroke-miterlimit="10" stroke-linecap="round" stroke-linejoin="round"/>
<path d="M42.1203 43.7224L43.4818 43.2921" stroke="#8293A4" stroke-width="2" stroke-miterlimit="10" stroke-linecap="round" stroke-linejoin="round"/>
<path d="M38.9099 43.134L39.9991 43.7223" stroke="#8293A4" stroke-width="2" stroke-miterlimit="10" stroke-linecap="round" stroke-linejoin="round"/>
<path d="M37.8275 40.0784L37.8578 41.2919" stroke="#8293A4" stroke-width="2" stroke-miterlimit="10" stroke-linecap="round" stroke-linejoin="round"/>
<path d="M41.1959 42.9592C42.4064 42.9592 43.3876 41.9779 43.3876 40.7675C43.3876 39.557 42.4064 38.5757 41.1959 38.5757C39.9854 38.5757 39.0041 39.557 39.0041 40.7675C39.0041 41.9779 39.9854 42.9592 41.1959 42.9592Z" stroke="#8293A4" stroke-width="2" stroke-miterlimit="10" stroke-linecap="round" stroke-linejoin="round"/>
<path d="M41.1958 38.3538C41.3054 38.3538 41.3942 38.265 41.3942 38.1555C41.3942 38.046 41.3054 37.9572 41.1958 37.9572C41.0863 37.9572 40.9975 38.046 40.9975 38.1555C40.9975 38.265 41.0863 38.3538 41.1958 38.3538Z" stroke="#8293A4" stroke-width="2" stroke-miterlimit="10" stroke-linecap="round" stroke-linejoin="round"/>
<path d="M41.1958 43.7055C41.3054 43.7055 41.3942 43.6167 41.3942 43.5072C41.3942 43.3976 41.3054 43.3088 41.1958 43.3088C41.0863 43.3088 40.9975 43.3976 40.9975 43.5072C40.9975 43.6167 41.0863 43.7055 41.1958 43.7055Z" stroke="#8293A4" stroke-width="2" stroke-miterlimit="10" stroke-linecap="round" stroke-linejoin="round"/>
<path d="M43.8717 41.0297C43.9812 41.0297 44.07 40.9409 44.07 40.8314C44.07 40.7219 43.9812 40.6331 43.8717 40.6331C43.7621 40.6331 43.6733 40.7219 43.6733 40.8314C43.6733 40.9409 43.7621 41.0297 43.8717 41.0297Z" stroke="#8293A4" stroke-width="2" stroke-miterlimit="10" stroke-linecap="round" stroke-linejoin="round"/>
<path d="M38.52 41.0297C38.6295 41.0297 38.7183 40.9409 38.7183 40.8314C38.7183 40.7219 38.6295 40.6331 38.52 40.6331C38.4105 40.6331 38.3217 40.7219 38.3217 40.8314C38.3217 40.9409 38.4105 41.0297 38.52 41.0297Z" stroke="#8293A4" stroke-width="2" stroke-miterlimit="10" stroke-linecap="round" stroke-linejoin="round"/>
<path d="M43.0885 42.9223C43.198 42.9223 43.2868 42.8335 43.2868 42.724C43.2868 42.6144 43.198 42.5256 43.0885 42.5256C42.9789 42.5256 42.8901 42.6144 42.8901 42.724C42.8901 42.8335 42.9789 42.9223 43.0885 42.9223Z" stroke="#8293A4" stroke-width="2" stroke-miterlimit="10" stroke-linecap="round" stroke-linejoin="round"/>
<path d="M39.3033 39.1372C39.4128 39.1372 39.5016 39.0484 39.5016 38.9388C39.5016 38.8293 39.4128 38.7405 39.3033 38.7405C39.1937 38.7405 39.1049 38.8293 39.1049 38.9388C39.1049 39.0484 39.1937 39.1372 39.3033 39.1372Z" stroke="#8293A4" stroke-width="2" stroke-miterlimit="10" stroke-linecap="round" stroke-linejoin="round"/>
<path d="M39.3033 42.9223C39.4128 42.9223 39.5016 42.8335 39.5016 42.724C39.5016 42.6144 39.4128 42.5256 39.3033 42.5256C39.1937 42.5256 39.1049 42.6144 39.1049 42.724C39.1049 42.8335 39.1937 42.9223 39.3033 42.9223Z" stroke="#8293A4" stroke-width="2" stroke-miterlimit="10" stroke-linecap="round" stroke-linejoin="round"/>
<path d="M43.0885 39.1372C43.198 39.1372 43.2868 39.0484 43.2868 38.9388C43.2868 38.8293 43.198 38.7405 43.0885 38.7405C42.9789 38.7405 42.8901 38.8293 42.8901 38.9388C42.8901 39.0484 42.9789 39.1372 43.0885 39.1372Z" stroke="#8293A4" stroke-width="2" stroke-miterlimit="10" stroke-linecap="round" stroke-linejoin="round"/>
<path d="M38.7284 39.9943C38.838 39.9943 38.9268 39.9055 38.9268 39.796C38.9268 39.6865 38.838 39.5977 38.7284 39.5977C38.6189 39.5977 38.5301 39.6865 38.5301 39.796C38.5301 39.9055 38.6189 39.9943 38.7284 39.9943Z" stroke="#8293A4" stroke-width="2" stroke-miterlimit="10" stroke-linecap="round" stroke-linejoin="round"/>
<path d="M43.6633 42.0651C43.7728 42.0651 43.8616 41.9763 43.8616 41.8668C43.8616 41.7573 43.7728 41.6685 43.6633 41.6685C43.5538 41.6685 43.465 41.7573 43.465 41.8668C43.465 41.9763 43.5538 42.0651 43.6633 42.0651Z" stroke="#8293A4" stroke-width="2" stroke-miterlimit="10" stroke-linecap="round" stroke-linejoin="round"/>
<path d="M43.6834 40.0414C43.793 40.0414 43.8818 39.9526 43.8818 39.8431C43.8818 39.7336 43.793 39.6448 43.6834 39.6448C43.5739 39.6448 43.4851 39.7336 43.4851 39.8431C43.4851 39.9526 43.5739 40.0414 43.6834 40.0414Z" stroke="#8293A4" stroke-width="2" stroke-miterlimit="10" stroke-linecap="round" stroke-linejoin="round"/>
<path d="M38.7082 42.018C38.8178 42.018 38.9066 41.9292 38.9066 41.8197C38.9066 41.7101 38.8178 41.6213 38.7082 41.6213C38.5987 41.6213 38.5099 41.7101 38.5099 41.8197C38.5099 41.9292 38.5987 42.018 38.7082 42.018Z" stroke="#8293A4" stroke-width="2" stroke-miterlimit="10" stroke-linecap="round" stroke-linejoin="round"/>
<path d="M42.2212 38.5556C42.3307 38.5556 42.4195 38.4668 42.4195 38.3573C42.4195 38.2477 42.3307 38.1589 42.2212 38.1589C42.1116 38.1589 42.0228 38.2477 42.0228 38.3573C42.0228 38.4668 42.1116 38.5556 42.2212 38.5556Z" stroke="#8293A4" stroke-width="2" stroke-miterlimit="10" stroke-linecap="round" stroke-linejoin="round"/>
<path d="M40.1706 43.5004C40.2801 43.5004 40.3689 43.4116 40.3689 43.3021C40.3689 43.1926 40.2801 43.1038 40.1706 43.1038C40.061 43.1038 39.9722 43.1926 39.9722 43.3021C39.9722 43.4116 40.061 43.5004 40.1706 43.5004Z" stroke="#8293A4" stroke-width="2" stroke-miterlimit="10" stroke-linecap="round" stroke-linejoin="round"/>
<path d="M40.0932 38.5925C40.2028 38.5925 40.2916 38.5037 40.2916 38.3941C40.2916 38.2846 40.2028 38.1958 40.0932 38.1958C39.9837 38.1958 39.8949 38.2846 39.8949 38.3941C39.8949 38.5037 39.9837 38.5925 40.0932 38.5925Z" stroke="#8293A4" stroke-width="2" stroke-miterlimit="10" stroke-linecap="round" stroke-linejoin="round"/>
<path d="M42.2984 43.4669C42.408 43.4669 42.4968 43.3781 42.4968 43.2685C42.4968 43.159 42.408 43.0702 42.2984 43.0702C42.1889 43.0702 42.1001 43.159 42.1001 43.2685C42.1001 43.3781 42.1889 43.4669 42.2984 43.4669Z" stroke="#8293A4" stroke-width="2" stroke-miterlimit="10" stroke-linecap="round" stroke-linejoin="round"/>
<path d="M42.2211 26.1075C42.2211 26.1075 45.734 24.0569 45.1658 21.3273C45.1658 21.3273 44.6045 22.7089 43.7237 22.7829C42.843 22.8534 42.8598 22.3761 42.8598 22.3761" stroke="#8293A4" stroke-width="2" stroke-miterlimit="10" stroke-linecap="round" stroke-linejoin="round"/>
<path d="M40.0999 26.1075C40.0999 26.1075 38.9973 24.7494 37.5417 26.5579C37.5417 26.5579 37.4543 25.3511 38.251 24.4838C39.0477 23.6165 39.7839 23.4921 40.3386 22.1777" stroke="#8293A4" stroke-width="2" stroke-miterlimit="10" stroke-linecap="round" stroke-linejoin="round"/>
<path d="M54.1683 34.2964C54.1683 34.2964 57.6677 36.2697 59.7351 34.3972C59.7351 34.3972 58.2594 34.6157 57.7518 33.8896C57.2442 33.1669 57.9871 32.6727 57.9871 32.6727" stroke="#8293A4" stroke-width="2" stroke-miterlimit="10" stroke-linecap="round" stroke-linejoin="round"/>
<path d="M53.0858 32.471C53.0858 32.471 53.6573 30.8104 51.3613 30.4708C51.3613 30.4708 52.3564 29.7851 53.5094 30.0305C54.6624 30.2792 55.1432 30.8507 56.555 30.6624" stroke="#8293A4" stroke-width="2" stroke-miterlimit="10" stroke-linecap="round" stroke-linejoin="round"/>
<path d="M53.3145 48.9194C53.3145 48.9194 52.9279 52.6508 55.5735 53.5282C55.5735 53.5282 54.6591 52.3483 55.039 51.5516C55.4188 50.7549 56.1752 50.9734 56.1752 50.9734" stroke="#8293A4" stroke-width="2" stroke-miterlimit="10" stroke-linecap="round" stroke-linejoin="round"/>
<path d="M54.37 47.0772C54.37 47.0772 55.7146 46.4755 54.881 44.3073C54.881 44.3073 55.9668 44.835 56.3197 45.9612C56.6693 47.0873 56.4071 47.7865 57.2644 48.9228" stroke="#8293A4" stroke-width="2" stroke-miterlimit="10" stroke-linecap="round" stroke-linejoin="round"/>
<path d="M39.9991 55.051C39.9991 55.051 36.429 56.9672 36.9366 59.7069C36.9366 59.7069 37.5283 58.3353 38.409 58.2849C39.2931 58.2345 39.552 58.964 39.552 58.964" stroke="#8293A4" stroke-width="2" stroke-miterlimit="10" stroke-linecap="round" stroke-linejoin="round"/>
<path d="M42.1203 55.0511C42.1203 55.0511 43.1826 56.1201 44.6751 54.3418C44.6751 54.3418 44.7356 55.8545 43.9188 56.705C43.1019 57.5555 42.3623 57.6631 41.7808 58.964" stroke="#8293A4" stroke-width="2" stroke-miterlimit="10" stroke-linecap="round" stroke-linejoin="round"/>
<path d="M28.0148 46.8991C28.0148 46.8991 24.2902 44.9762 22.3169 46.9495C22.3169 46.9495 23.7893 46.6537 24.3238 47.3562C24.7944 47.9781 24.4616 48.3983 24.4616 48.3983" stroke="#8293A4" stroke-width="2" stroke-miterlimit="10" stroke-linecap="round" stroke-linejoin="round"/>
<path d="M29.0637 48.7413C29.0637 48.7413 28.5628 50.2305 30.8722 50.4558C30.8722 50.4558 29.9142 51.192 28.7477 51.0003C27.5846 50.8087 27.077 50.3616 25.6752 50.6171" stroke="#8293A4" stroke-width="2" stroke-miterlimit="10" stroke-linecap="round" stroke-linejoin="round"/>
<path d="M29.1645 32.4743C29.1645 32.4743 29.1175 28.4505 26.4652 27.5865C26.4652 27.5865 27.3862 28.7598 27.0097 29.5598C26.6332 30.3599 26.1525 30.2355 26.1525 30.2355" stroke="#8293A4" stroke-width="2" stroke-miterlimit="10" stroke-linecap="round" stroke-linejoin="round"/>
<path d="M28.0821 34.2997C28.0821 34.2997 26.3744 34.646 27.2215 36.8041C27.2215 36.8041 26.1323 36.2831 25.7726 35.1569C25.4163 34.0342 25.5138 33.6072 24.6498 32.4744" stroke="#8293A4" stroke-width="2" stroke-miterlimit="10" stroke-linecap="round" stroke-linejoin="round"/>
<path d="M40.3387 22.1777C40.3387 22.1777 42.7288 14.8729 37.33 7C37.33 7 43.6431 9.61198 42.8632 22.3727" stroke="#8293A4" stroke-width="2" stroke-miterlimit="10" stroke-linecap="round" stroke-linejoin="round"/>
<path d="M24.65 32.4744C24.65 32.4744 19.5268 26.8336 10 27.4252C10 27.4252 15.6072 23.0148 26.1593 30.2355" stroke="#8293A4" stroke-width="2" stroke-miterlimit="10" stroke-linecap="round" stroke-linejoin="round"/>
<path d="M56.5551 30.6658C56.5551 30.6658 64.26 28.7732 68.3309 20.1372C68.3309 20.1372 69.3965 26.9075 57.9838 32.6727" stroke="#8293A4" stroke-width="2" stroke-miterlimit="10" stroke-linecap="round" stroke-linejoin="round"/>
<path d="M57.261 48.9261C57.261 48.9261 62.0648 53.9955 71 53.3063C71 53.3063 67.3593 57.1722 56.1752 50.9734" stroke="#8293A4" stroke-width="2" stroke-miterlimit="10" stroke-linecap="round" stroke-linejoin="round"/>
<path d="M41.7808 58.964C41.7808 58.964 39.5554 64.1879 44.5071 72.35C44.5071 72.35 38.4393 70.5145 39.552 58.964" stroke="#8293A4" stroke-width="2" stroke-miterlimit="10" stroke-linecap="round" stroke-linejoin="round"/>
<path d="M25.6786 50.6171C25.6786 50.6171 18.8848 51.629 14.5618 60.1406C14.5618 60.1406 12.8877 53.8275 24.4617 48.3984" stroke="#8293A4" stroke-width="2" stroke-miterlimit="10" stroke-linecap="round" stroke-linejoin="round"/>
<path d="M37.33 7C37.33 7 43.8818 9.43381 43.8852 17.653L42.8733 18.3589" stroke="#8293A4" stroke-width="2" stroke-miterlimit="10" stroke-linecap="round" stroke-linejoin="round"/>
<path d="M68.3309 20.1372C68.3309 20.1372 69.299 27.8521 62.2228 31.5735L61.0093 30.9448" stroke="#8293A4" stroke-width="2" stroke-miterlimit="10" stroke-linecap="round" stroke-linejoin="round"/>
<path d="M71 53.3064C71 53.3064 66.0248 57.8009 58.9789 54.0258L59.0562 52.4324" stroke="#8293A4" stroke-width="2" stroke-miterlimit="10" stroke-linecap="round" stroke-linejoin="round"/>
<path d="M44.5104 72.3499C44.5104 72.3499 37.9956 69.9564 38.2074 62.8029L39.4176 62.2449" stroke="#8293A4" stroke-width="2" stroke-miterlimit="10" stroke-linecap="round" stroke-linejoin="round"/>
<path d="M14.5617 60.1404C14.5617 60.1404 13.1734 53.9181 20.0781 49.6354L20.9891 50.2842" stroke="#8293A4" stroke-width="2" stroke-miterlimit="10" stroke-linecap="round" stroke-linejoin="round"/>
<path d="M10 27.4252C10 27.4252 15.3315 23.25 22.6464 26.8402V28.1479" stroke="#8293A4" stroke-width="2" stroke-miterlimit="10" stroke-linecap="round" stroke-linejoin="round"/>
<path d="M29.6017 35.0695C29.6017 35.0695 30.2101 34.4375 30.4656 33.3651" stroke="#8293A4" stroke-width="2" stroke-miterlimit="10" stroke-linecap="round" stroke-linejoin="round"/>
<path d="M29.8975 35.2243C29.8975 35.2243 30.637 34.3536 30.7311 33.5435" stroke="#8293A4" stroke-width="2" stroke-miterlimit="10" stroke-linecap="round" stroke-linejoin="round"/>
<path d="M31.5346 36.1116C31.5346 36.1116 32.2338 35.5368 32.4456 34.6594" stroke="#8293A4" stroke-width="2" stroke-miterlimit="10" stroke-linecap="round" stroke-linejoin="round"/>
<path d="M31.8741 36.2999C31.8741 36.2999 32.5094 35.7755 32.8187 34.8914" stroke="#8293A4" stroke-width="2" stroke-miterlimit="10" stroke-linecap="round" stroke-linejoin="round"/>
<path d="M40.2378 27.7178C40.2412 27.7716 41.1992 27.9195 42.0833 27.7178" stroke="#8293A4" stroke-width="2" stroke-miterlimit="10" stroke-linecap="round" stroke-linejoin="round"/>
<path d="M40.2647 28.1984C40.2647 28.1984 41.3875 28.3463 42.0565 28.1345" stroke="#8293A4" stroke-width="2" stroke-miterlimit="10" stroke-linecap="round" stroke-linejoin="round"/>
<path d="M40.3387 30.2053C40.3387 30.2053 41.3304 30.3902 41.9892 30.1515" stroke="#8293A4" stroke-width="2" stroke-miterlimit="10" stroke-linecap="round" stroke-linejoin="round"/>
<path d="M40.3353 30.6053C40.3353 30.6053 41.4514 30.7767 41.9892 30.5515" stroke="#8293A4" stroke-width="2" stroke-miterlimit="10" stroke-linecap="round" stroke-linejoin="round"/>
<path d="M51.785 33.3651C51.785 33.3651 51.9631 34.4072 52.7834 34.9989" stroke="#8293A4" stroke-width="2" stroke-miterlimit="10" stroke-linecap="round" stroke-linejoin="round"/>
<path d="M51.3615 33.6476C51.3615 33.6476 51.5833 34.6426 52.3565 35.204" stroke="#8293A4" stroke-width="2" stroke-miterlimit="10" stroke-linecap="round" stroke-linejoin="round"/>
<path d="M49.7042 34.7233C49.7042 34.7233 50.0168 35.6309 50.6488 36.1486" stroke="#8293A4" stroke-width="2" stroke-miterlimit="10" stroke-linecap="round" stroke-linejoin="round"/>
<path d="M49.4487 34.8846C49.4487 34.8846 49.526 35.7419 50.3092 36.3402" stroke="#8293A4" stroke-width="2" stroke-miterlimit="10" stroke-linecap="round" stroke-linejoin="round"/>
<path d="M52.5683 46.1931C52.5683 46.1931 51.9127 46.7209 51.6371 47.8101" stroke="#8293A4" stroke-width="2" stroke-miterlimit="10" stroke-linecap="round" stroke-linejoin="round"/>
<path d="M51.227 47.5513C51.227 47.5513 51.5195 46.4117 52.2187 46.015" stroke="#8293A4" stroke-width="2" stroke-miterlimit="10" stroke-linecap="round" stroke-linejoin="round"/>
<path d="M49.6201 46.5562C49.6201 46.5562 49.9361 45.5309 50.5076 45.114" stroke="#8293A4" stroke-width="2" stroke-miterlimit="10" stroke-linecap="round" stroke-linejoin="round"/>
<path d="M49.2941 46.3578C49.2941 46.3578 49.5327 45.3225 50.1479 44.9191" stroke="#8293A4" stroke-width="2" stroke-miterlimit="10" stroke-linecap="round" stroke-linejoin="round"/>
<path d="M40.1471 53.266C40.1471 53.266 41.2531 53.0542 41.9691 53.266" stroke="#8293A4" stroke-width="2" stroke-miterlimit="10" stroke-linecap="round" stroke-linejoin="round"/>
<path d="M40.1706 52.839C40.1706 52.839 41.1018 52.6373 41.9489 52.839" stroke="#8293A4" stroke-width="2" stroke-miterlimit="10" stroke-linecap="round" stroke-linejoin="round"/>
<path d="M40.2378 50.8591C40.2378 50.8591 40.8093 50.7112 41.8816 50.8591" stroke="#8293A4" stroke-width="2" stroke-miterlimit="10" stroke-linecap="round" stroke-linejoin="round"/>
<path d="M40.2378 50.5128C40.2378 50.5128 41.0782 50.3145 41.885 50.5128" stroke="#8293A4" stroke-width="2" stroke-miterlimit="10" stroke-linecap="round" stroke-linejoin="round"/>
<path d="M40.1168 45.4603C40.1168 45.4603 41.2597 45.262 41.9993 45.4603" stroke="#8293A4" stroke-width="2" stroke-miterlimit="10" stroke-linecap="round" stroke-linejoin="round"/>
<path d="M44.7827 43.8904C44.7827 43.8904 45.0987 42.7206 45.7811 42.3138" stroke="#8293A4" stroke-width="2" stroke-miterlimit="10" stroke-linecap="round" stroke-linejoin="round"/>
<path d="M45.7441 39.1372C45.7441 39.1372 44.9272 38.364 44.9104 37.4967" stroke="#8293A4" stroke-width="2" stroke-miterlimit="10" stroke-linecap="round" stroke-linejoin="round"/>
<path d="M37.4409 37.5471C37.4409 37.5471 37.3299 38.6161 36.5097 39.1405" stroke="#8293A4" stroke-width="2" stroke-miterlimit="10" stroke-linecap="round" stroke-linejoin="round"/>
<path d="M40.2176 35.9469C40.2176 35.9469 41.2328 36.2024 42.1001 35.9099" stroke="#8293A4" stroke-width="2" stroke-miterlimit="10" stroke-linecap="round" stroke-linejoin="round"/>
<path d="M36.5131 42.1794C36.5131 42.1794 37.2493 43.0938 37.3569 43.8905" stroke="#8293A4" stroke-width="2" stroke-miterlimit="10" stroke-linecap="round" stroke-linejoin="round"/>
<path d="M29.5209 46.2032C29.5209 46.2032 30.2 46.8453 30.405 47.8202" stroke="#8293A4" stroke-width="2" stroke-miterlimit="10" stroke-linecap="round" stroke-linejoin="round"/>
<path d="M29.7865 46.0721C29.7865 46.0721 30.5294 46.6503 30.6504 47.6588" stroke="#8293A4" stroke-width="2" stroke-miterlimit="10" stroke-linecap="round" stroke-linejoin="round"/>
<path d="M31.5143 45.168C31.5143 45.168 32.1799 45.689 32.3816 46.5866" stroke="#8293A4" stroke-width="2" stroke-miterlimit="10" stroke-linecap="round" stroke-linejoin="round"/>
<path d="M31.8169 45.0032C31.8169 45.0032 32.543 45.5478 32.7077 46.3982" stroke="#8293A4" stroke-width="2" stroke-miterlimit="10" stroke-linecap="round" stroke-linejoin="round"/>
</svg>
