<svg width="80" height="70" viewBox="0 0 80 70" fill="none" xmlns="http://www.w3.org/2000/svg">
<path d="M40 70C38.8611 70 37.7631 69.5942 36.9073 68.8571C33.6755 66.0778 30.5597 63.4659 27.8107 61.1621L27.7966 61.1501C19.7369 54.3951 12.7771 48.5616 7.93457 42.8151C2.52136 36.3909 0 30.2998 0 23.6457C0 17.1807 2.25403 11.2163 6.34644 6.85041C10.4877 2.43294 16.17 0 22.3486 0C26.9666 0 31.1957 1.43587 34.9182 4.2674C36.7969 5.69667 38.4998 7.44589 40 9.48625C41.5009 7.44589 43.2031 5.69667 45.0824 4.2674C48.8049 1.43587 53.0341 0 57.652 0C63.83 0 69.5129 2.43294 73.6542 6.85041C77.7466 11.2163 80 17.1807 80 23.6457C80 30.2998 77.4792 36.3909 72.066 42.8145C67.2237 48.5613 60.2649 54.394 52.2069 61.1479L52.2058 61.1489C49.4519 63.4563 46.3312 66.0724 43.092 68.8583C42.2369 69.5942 41.1383 70 40 70ZM22.3486 4.60896C17.4945 4.60896 13.0353 6.51425 9.79126 9.97427C6.49902 13.4865 4.68567 18.3416 4.68567 23.6457C4.68567 29.2421 6.80054 34.2472 11.5424 39.8743C16.1246 45.3124 22.9398 51.0247 30.8309 57.6387L30.8356 57.6426L30.8502 57.6546C33.6096 59.9675 36.7377 62.5895 39.9933 65.3892C43.2684 62.5841 46.4014 59.9579 49.1663 57.6414L49.1876 57.6235C57.071 51.0154 63.8793 45.3085 68.4583 39.8743C73.1995 34.2472 75.3143 29.2421 75.3143 23.6457C75.3143 18.3416 73.501 13.4865 70.2087 9.97427C66.9653 6.51425 62.5055 4.60896 57.652 4.60896C54.0961 4.60896 50.8313 5.72068 47.9486 7.91291C45.3796 9.86742 43.5901 12.3382 42.5409 14.067C42.0013 14.956 41.0516 15.4867 40 15.4867C38.9484 15.4867 37.9987 14.956 37.4591 14.067C36.4105 12.3382 34.621 9.86742 32.0514 7.91291C29.1687 5.72068 25.9039 4.60896 22.3486 4.60896Z" fill="#2E4B68" fill-opacity="0.7"/>
</svg>
