<svg width="70" height="70" viewBox="0 0 70 70" fill="none" xmlns="http://www.w3.org/2000/svg">
    <path
        d="M29.99 1.79342C31.3666 0.638754 33.1519 0 35.0025 0C36.8531 0 38.6384 0.638754 40.015 1.79342L67.515 24.8619C68.2969 25.5183 68.9222 26.3209 69.3503 27.2176C69.7784 28.1142 69.9998 29.0849 70 30.0666V62.9982C70 64.8552 69.2098 66.6361 67.8033 67.9492C66.3968 69.2623 64.4891 70 62.5 70H50C48.0109 70 46.1032 69.2623 44.6967 67.9492C43.2902 66.6361 42.5 64.8552 42.5 62.9982V46.6608C42.5 46.0418 42.2366 45.4481 41.7678 45.0104C41.2989 44.5727 40.663 44.3268 40 44.3268H30C29.337 44.3268 28.7011 44.5727 28.2322 45.0104C27.7634 45.4481 27.5 46.0418 27.5 46.6608V62.9982C27.5 64.8552 26.7098 66.6361 25.3033 67.9492C23.8968 69.2623 21.9891 70 20 70H7.5C5.51088 70 3.60322 69.2623 2.1967 67.9492C0.790177 66.6361 0 64.8552 0 62.9982V30.0666C0 28.0827 0.9 26.1923 2.49 24.8619L29.99 1.79342ZM36.67 5.2663C36.2112 4.88184 35.6165 4.66919 35 4.66919C34.3835 4.66919 33.7888 4.88184 33.33 5.2663L5.83 28.3348C5.56948 28.5531 5.36099 28.8201 5.21801 29.1184C5.07503 29.4167 5.00076 29.7397 5 30.0666V62.9982C5 63.6172 5.26339 64.2109 5.73223 64.6486C6.20107 65.0863 6.83696 65.3322 7.5 65.3322H20C20.663 65.3322 21.2989 65.0863 21.7678 64.6486C22.2366 64.2109 22.5 63.6172 22.5 62.9982V46.6608C22.5 44.8038 23.2902 43.0229 24.6967 41.7098C26.1032 40.3967 28.0109 39.659 30 39.659H40C41.9891 39.659 43.8968 40.3967 45.3033 41.7098C46.7098 43.0229 47.5 44.8038 47.5 46.6608V62.9982C47.5 63.6172 47.7634 64.2109 48.2322 64.6486C48.7011 65.0863 49.337 65.3322 50 65.3322H62.5C63.163 65.3322 63.7989 65.0863 64.2678 64.6486C64.7366 64.2109 65 63.6172 65 62.9982V30.0666C64.9992 29.7397 64.925 29.4167 64.782 29.1184C64.639 28.8201 64.4305 28.5531 64.17 28.3348L36.67 5.2663Z"
        fill="#2E4B68" fill-opacity="0.7" />
</svg>
