<svg width="249" height="236" viewBox="0 0 249 236" fill="none" xmlns="http://www.w3.org/2000/svg">
<path d="M124.827 235.092C138.133 235.092 148.92 224.305 148.92 210.999C148.92 197.692 138.133 186.905 124.827 186.905C111.521 186.905 100.734 197.692 100.734 210.999C100.734 224.305 111.521 235.092 124.827 235.092Z" fill="black" fill-opacity="0.9"/>
<path d="M214.613 115.991L215.497 114.626C216.369 113.274 216.963 111.763 217.245 110.179C217.528 108.596 217.492 106.972 217.141 105.403C216.789 103.833 216.129 102.349 215.199 101.037C214.269 99.7251 213.087 98.6112 211.722 97.7603C185.61 81.6289 155.519 73.0913 124.826 73.1049C120.328 73.1049 115.911 73.1049 111.574 73.667L137.354 99.4468C158.996 101.359 179.894 108.289 198.391 119.685C201.046 121.294 204.222 121.808 207.249 121.119C210.276 120.43 212.917 118.591 214.613 115.991Z" fill="black" fill-opacity="0.9"/>
<path d="M243.365 49.092C216.6 32.3985 186.611 21.5446 155.361 17.2405C124.111 12.9364 92.305 15.2791 62.0232 24.1153L83.145 45.2371C133.607 34.4039 186.305 43.6814 230.034 71.0972C232.674 72.6571 235.813 73.1436 238.802 72.4561C241.791 71.7686 244.402 69.9597 246.096 67.4029L246.979 66.0376C247.871 64.6928 248.486 63.1836 248.787 61.5983C249.088 60.013 249.07 58.3835 248.733 56.8053C248.397 55.2272 247.748 53.732 246.827 52.4076C245.905 51.0831 244.728 49.9559 243.365 49.092Z" fill="black" fill-opacity="0.9"/>
<path d="M4.36028 11.908L29.2566 36.8044C21.1913 40.528 13.3599 44.7387 5.80587 49.4132C4.42343 50.2575 3.22416 51.3703 2.27888 52.6858C1.33359 54.0013 0.661442 55.4929 0.302113 57.0724C-0.0572159 58.652 -0.0964417 60.2875 0.186751 61.8824C0.469943 63.4774 1.06981 64.9995 1.95095 66.3588L2.83437 67.7241C4.52818 70.2809 7.13909 72.0898 10.1281 72.7773C13.117 73.4647 16.2559 72.9783 18.8965 71.4184C28.2775 65.5173 38.1368 60.413 48.3706 56.1593L73.5883 81.3769C60.827 85.4796 48.6107 91.1158 37.2074 98.1619C35.8491 99.0192 34.6746 100.138 33.7522 101.453C32.8298 102.768 32.1778 104.253 31.8341 105.822C31.4904 107.391 31.4618 109.013 31.75 110.593C32.0383 112.173 32.6376 113.68 33.5131 115.027L34.3965 116.392C36.0904 118.949 38.7013 120.758 41.6902 121.446C44.6792 122.133 47.818 121.647 50.4587 120.087C64.0825 111.66 79.0495 105.629 94.71 102.258L123.622 131.17C104.386 131.366 85.5543 136.718 69.0909 146.67C67.7352 147.519 66.5624 148.631 65.6409 149.939C64.7194 151.246 64.0677 152.725 63.7238 154.287C63.3799 155.85 63.3507 157.465 63.6379 159.039C63.9251 160.613 64.5229 162.114 65.3965 163.455L66.1997 164.74C67.9669 167.352 70.6763 169.178 73.7603 169.837C76.8443 170.496 80.0636 169.935 82.7437 168.273C93.5524 161.853 105.694 158.006 118.228 157.031C130.762 156.056 143.352 157.979 155.023 162.652L213.169 220.716L224.492 209.392L15.6841 0.584167L4.36028 11.908Z" fill="black" fill-opacity="0.9"/>
</svg>
