<svg width="110" height="125" viewBox="0 0 110 125" fill="none" xmlns="http://www.w3.org/2000/svg">
    <g filter="url(#filter0_d_393_17)">
        <path
            d="M95.9192 24.0085L60.5208 7.21901C58.7894 6.41586 56.906 6 55 6C53.094 6 51.2106 6.41586 49.4792 7.21901L14.0808 24.0085C12.863 24.5897 11.8334 25.5066 11.1112 26.653C10.389 27.7995 10.0037 29.1286 10 30.4866V49.0042C9.98748 62.696 14.2564 76.0437 22.2002 87.151C30.1441 98.2582 41.3589 106.56 54.2516 110.878C54.7374 111.041 55.2626 111.041 55.7484 110.878C68.6411 106.56 79.8559 98.2582 87.7998 87.151C95.7436 76.0437 100.013 62.696 100 49.0042V30.4866C99.9963 29.1286 99.611 27.7995 98.8888 26.653C98.1666 25.5066 97.137 24.5897 95.9192 24.0085ZM95.2631 49.0042C95.2748 61.5576 91.4029 73.8024 84.1864 84.0344C76.9699 94.2664 66.7678 101.977 55 106.092C43.2322 101.977 33.0301 94.2664 25.8136 84.0344C18.5971 73.8024 14.7252 61.5576 14.7369 49.0042V30.4866C14.7387 30.0341 14.8673 29.5913 15.1078 29.2091C15.3483 28.827 15.6909 28.521 16.0963 28.3264L51.4971 11.5393C52.5929 11.0199 53.789 10.7506 55 10.7506C56.211 10.7506 57.4071 11.0199 58.5029 11.5393L93.9037 28.3264C94.3091 28.521 94.6517 28.827 94.8922 29.2091C95.1327 29.5913 95.2613 30.0341 95.2631 30.4866V49.0042Z"
            fill="black" />
        <path
            d="M54.9999 29.8445C49.8472 29.8445 44.8102 31.3844 40.5258 34.2694C36.2415 37.1545 32.9023 41.2551 30.9304 46.0528C28.9586 50.8504 28.4426 56.1296 29.4479 61.2228C30.4531 66.316 32.9344 70.9943 36.5779 74.6663C40.2214 78.3383 44.8636 80.8389 49.9173 81.852C54.971 82.8651 60.2093 82.3451 64.9698 80.3579C69.7303 78.3706 73.7992 75.0053 76.6619 70.6876C79.5246 66.3698 81.0525 61.2935 81.0525 56.1005C81.0444 49.1395 78.2969 42.466 73.4129 37.5438C68.5288 32.6216 61.907 29.8527 54.9999 29.8445ZM54.9999 77.5827C50.784 77.5827 46.6628 76.3228 43.1575 73.9623C39.6521 71.6018 36.92 68.2467 35.3067 64.3214C33.6933 60.396 33.2712 56.0767 34.0937 51.9095C34.9162 47.7424 36.9463 43.9147 39.9274 40.9103C42.9084 37.906 46.7065 35.86 50.8414 35.0311C54.9762 34.2022 59.2621 34.6276 63.1571 36.2536C67.052 37.8795 70.3811 40.6329 72.7233 44.1657C75.0655 47.6984 76.3157 51.8517 76.3157 56.1005C76.3094 61.796 74.0616 67.2564 70.0655 71.2837C66.0694 75.3111 60.6513 77.5764 54.9999 77.5827Z"
            fill="black" />
        <path
            d="M63.9836 47.2523L51.4475 59.8862L46.0167 54.413C45.5717 53.9654 44.9685 53.7144 44.3397 53.715C43.711 53.7157 43.1083 53.9681 42.6642 54.4166C42.2201 54.8651 41.971 55.473 41.9717 56.1066C41.9723 56.7403 42.2227 57.3477 42.6678 57.7952L49.773 64.956C50.2172 65.4034 50.8195 65.6548 51.4475 65.6548C52.0755 65.6548 52.6778 65.4034 53.122 64.956L67.3325 50.6345C67.7639 50.1843 68.0027 49.5814 67.9973 48.9556C67.9919 48.3297 67.7428 47.731 67.3037 47.2885C66.8645 46.8459 66.2705 46.5949 65.6495 46.5895C65.0285 46.584 64.4302 46.8246 63.9836 47.2594V47.2523Z"
            fill="black" />
    </g>
    <defs>
        <filter id="filter0_d_393_17" x="0" y="0" width="110" height="125"
            filterUnits="userSpaceOnUse" color-interpolation-filters="sRGB">
            <feFlood flood-opacity="0" result="BackgroundImageFix" />
            <feColorMatrix in="SourceAlpha" type="matrix"
                values="0 0 0 0 0 0 0 0 0 0 0 0 0 0 0 0 0 0 127 0" result="hardAlpha" />
            <feOffset dy="4" />
            <feGaussianBlur stdDeviation="5" />
            <feComposite in2="hardAlpha" operator="out" />
            <feColorMatrix type="matrix" values="0 0 0 0 0 0 0 0 0 0 0 0 0 0 0 0 0 0 0.25 0" />
            <feBlend mode="normal" in2="BackgroundImageFix" result="effect1_dropShadow_393_17" />
            <feBlend mode="normal" in="SourceGraphic" in2="effect1_dropShadow_393_17"
                result="shape" />
        </filter>
    </defs>
</svg>
