<svg width="90" height="78" viewBox="0 0 90 78" fill="none" xmlns="http://www.w3.org/2000/svg">
<path fill-rule="evenodd" clip-rule="evenodd" d="M10 4C6.68629 4 4 6.68629 4 9.99999V52.2086H86V10C86 6.68629 83.3137 4 80 4H10ZM0 52.2086V56.2086V67.4194C0 72.9422 4.47715 77.4194 10 77.4194H80C85.5229 77.4194 90 72.9422 90 67.4194V56.2086V52.2086V10C90 4.47715 85.5229 0 80 0H10C4.47715 0 0 4.47714 0 9.99999V52.2086ZM86 67.4194V56.2086H4V67.4194C4 70.7331 6.68629 73.4194 10 73.4194H80C83.3137 73.4194 86 70.7331 86 67.4194ZM19.5 63.8139C18.6716 63.8139 18 64.4854 18 65.3139C18 66.1423 18.6716 66.8139 19.5 66.8139H27.3398V67.3084C27.3398 68.2067 28.0681 68.9349 28.9664 68.9349C29.8646 68.9349 30.5929 68.2067 30.5929 67.3084V66.8139H70.7169C71.5453 66.8139 72.2169 66.1423 72.2169 65.3139C72.2169 64.4854 71.5453 63.8139 70.7169 63.8139H30.5929V63.1376C30.5929 62.2393 29.8646 61.5111 28.9664 61.5111C28.0681 61.5111 27.3398 62.2393 27.3398 63.1376V63.8139H19.5ZM35.2827 17.0956H32.8507L23.5387 39.8156H26.6108L29.2668 33.1596H38.8027L41.4908 39.8156H44.5628L35.2827 17.0956ZM34.0667 20.4236L38.1628 30.9196H29.8428L34.0667 20.4236ZM47.595 17.0956V39.8156H55.467C57.707 39.8156 59.6483 39.3463 61.291 38.4076C62.9337 37.4689 64.203 36.1463 65.099 34.4396C65.995 32.7329 66.443 30.7276 66.443 28.4236C66.443 26.3329 66.0377 24.4343 65.227 22.7276C64.4163 20.9996 63.1897 19.6343 61.547 18.6316C59.9257 17.6076 57.899 17.0956 55.467 17.0956H47.595ZM62.571 23.8796C63.211 25.2023 63.531 26.7169 63.531 28.4236C63.531 30.0876 63.2217 31.5916 62.603 32.9356C61.9843 34.2583 61.0777 35.3143 59.883 36.1036C58.6883 36.8716 57.2163 37.2556 55.467 37.2556H50.475V19.6556H55.467C57.195 19.6556 58.6563 20.0289 59.851 20.7756C61.0457 21.5223 61.9523 22.5569 62.571 23.8796Z" fill="black" fill-opacity="0.8"/>
</svg>
